Coordinates
version=1
nRows=21
nColumns=12
inDegrees=yes

Units are S.I. units (second, meters, Newtons, ...)
Angles are in degrees

endheader
time	SC_y	SC_z	SC_x	AC_y	AC_z	AC_x	GH_y	GH_z	GH_yy	EL_x	PS_y
       0.0              -20.35          23.19          5.422          46.55         -8.978          18.83         -54.22         -8.106         -172.8          115.9          16.03
   0.03804              -20.36          23.19          5.428          46.55         -8.976          18.83         -54.21         -8.096         -172.7          115.9          16.03
   0.07607              -20.36          23.18          5.435          46.55         -8.974          18.82          -54.2         -8.086         -172.7          115.9          16.04
    0.1141              -20.37          23.18          5.442          46.54         -8.971          18.82         -54.19         -8.075         -172.6          115.9          16.04
    0.1521              -20.37          23.18          5.449          46.54         -8.969          18.81         -54.18         -8.063         -172.5          115.9          16.04
    0.1902              -20.38          23.17          5.457          46.54         -8.966          18.81         -54.17         -8.051         -172.5          115.9          16.04
    0.2282              -20.38          23.17          5.466          46.54         -8.963           18.8         -54.15         -8.038         -172.4          115.9          16.04
    0.2663              -20.39          23.16          5.475          46.53          -8.96           18.8         -54.14         -8.024         -172.3          115.9          16.04
    0.3043              -20.39          23.16          5.485          46.53         -8.957          18.79         -54.12         -8.008         -172.3          115.9          16.04
    0.3423               -20.4          23.15          5.496          46.53         -8.954          18.78          -54.1         -7.992         -172.2          115.9          16.05
    0.3804              -20.41          23.14          5.507          46.52          -8.95          18.78         -54.09         -7.975         -172.1          115.9          16.05
    0.4184              -20.41          23.14          5.519          46.52         -8.946          18.77         -54.07         -7.956         -172.0          115.9          16.05
    0.4564              -20.42          23.13          5.532          46.51         -8.942          18.76         -54.04         -7.936         -171.9          115.9          16.05
    0.4945              -20.43          23.12          5.546          46.51         -8.937          18.75         -54.02         -7.914         -171.8          115.9          16.06
    0.5325              -20.44          23.11          5.562           46.5         -8.932          18.74          -54.0          -7.89         -171.7          115.9          16.06
    0.5706              -20.45           23.1          5.578           46.5         -8.927          18.73         -53.97         -7.864         -171.5          115.9          16.06
    0.6086              -20.46          23.09          5.597          46.49         -8.921          18.72         -53.94         -7.836         -171.4          115.9          16.06
    0.6466              -20.48          23.08          5.616          46.48         -8.915          18.71         -53.91         -7.806         -171.2          115.9          16.07
    0.6847              -20.49          23.07          5.638          46.48         -8.908           18.7         -53.87         -7.773         -171.1          115.9          16.07
    0.7227               -20.5          23.06          5.662          46.47           -8.9          18.68         -53.83         -7.736         -170.9          115.9          16.08
    0.7607              -20.52          23.04          5.687          46.46         -8.892          18.66         -53.79         -7.696         -170.7          115.9          16.08
